<?xml version="1.0" encoding="UTF-8"?>
<svg xmlns="http://www.w3.org/2000/svg" xmlns:xlink="http://www.w3.org/1999/xlink" width="326.28pt" height="97.23pt" viewBox="0 0 326.28 97.23" version="1.1">
<defs>
<clipPath id="clip1">
  <path d="M 146 60 L 174 60 L 174 97.230469 L 146 97.230469 Z M 146 60 "/>
</clipPath>
<clipPath id="clip2">
  <path d="M 257 0 L 326.28125 0 L 326.28125 70 L 257 70 Z M 257 0 "/>
</clipPath>
</defs>
<g id="surface1">
<path style=" stroke:none;fill-rule:nonzero;fill:rgb(13.299561%,12.199402%,12.199402%);fill-opacity:1;" d="M 34.167969 72.34375 C 35.320313 68.027344 38.628906 65.355469 42.789063 65.355469 C 46.910156 65.355469 49.96875 67.917969 51.164063 72.34375 Z M 42.628906 60.628906 C 38.78125 60.628906 35.402344 62.085938 32.730469 65.042969 C 30.265625 67.777344 28.96875 71.09375 28.96875 74.90625 C 28.96875 78.539063 30.417969 82.269531 32.9375 84.9375 C 35.566406 87.746094 38.828125 89.164063 42.734375 89.164063 C 48.53125 89.164063 53.085938 85.945313 55.570313 79.902344 L 50.167969 79.902344 C 48.625 82.726563 45.90625 84.320313 42.734375 84.320313 C 38.375 84.320313 34.8125 81.316406 34.027344 76.730469 L 56.390625 76.730469 L 56.390625 75.972656 C 56.390625 72.25 55.710938 69.382813 54.125 66.90625 C 51.507813 62.875 47.289063 60.628906 42.628906 60.628906 "/>
<path style=" stroke:none;fill-rule:nonzero;fill:rgb(13.299561%,12.199402%,12.199402%);fill-opacity:1;" d="M 71.609375 60.972656 C 68.535156 60.972656 66.210938 62.03125 64.171875 64.5 L 64.171875 61.421875 L 59.570313 61.421875 L 59.570313 88.453125 L 64.371094 88.453125 L 64.371094 76.179688 C 64.371094 69.179688 66.058594 65.652344 71.152344 65.652344 C 75.5625 65.652344 77.601563 68.429688 77.601563 74.121094 L 77.601563 88.453125 L 82.402344 88.453125 L 82.402344 73.046875 C 82.402344 65.191406 78.492188 60.972656 71.609375 60.972656 "/>
<path style=" stroke:none;fill-rule:nonzero;fill:rgb(13.299561%,12.199402%,12.199402%);fill-opacity:1;" d="M 13.476563 65.441406 C 17.136719 65.441406 19.753906 67.066406 21.460938 70.390625 L 26.695313 70.390625 C 24.613281 64.105469 19.867188 60.628906 13.875 60.628906 C 9.960938 60.628906 6.492188 62.1875 3.769531 65.148438 C 1.289063 67.867188 0 71.1875 0 74.976563 C 0 78.601563 1.433594 82.320313 3.976563 84.984375 C 6.589844 87.816406 9.808594 89.164063 13.722656 89.164063 C 20.011719 89.164063 24.464844 85.730469 26.695313 79.238281 L 21.460938 79.238281 C 19.910156 82.519531 17.097656 84.378906 13.722656 84.378906 C 8.773438 84.378906 4.964844 80.359375 4.964844 74.90625 C 4.964844 69.472656 8.820313 65.441406 13.476563 65.441406 "/>
<path style=" stroke:none;fill-rule:nonzero;fill:rgb(13.299561%,12.199402%,12.199402%);fill-opacity:1;" d="M 208.3125 88.457031 L 213.054688 88.457031 L 213.054688 61.421875 L 208.3125 61.421875 Z M 208.3125 88.457031 "/>
<path style=" stroke:none;fill-rule:nonzero;fill:rgb(13.299561%,12.199402%,12.199402%);fill-opacity:1;" d="M 208.3125 58.261719 L 213.054688 58.261719 L 213.054688 52.667969 L 208.3125 52.667969 Z M 208.3125 58.261719 "/>
<path style=" stroke:none;fill-rule:nonzero;fill:rgb(13.299561%,12.199402%,12.199402%);fill-opacity:1;" d="M 230.789063 60.972656 C 227.714844 60.972656 225.394531 62.03125 223.359375 64.5 L 223.359375 61.421875 L 218.757813 61.421875 L 218.757813 88.453125 L 223.546875 88.453125 L 223.546875 76.179688 C 223.546875 69.179688 225.253906 65.652344 230.339844 65.652344 C 234.746094 65.652344 236.773438 68.429688 236.773438 74.121094 L 236.773438 88.453125 L 241.582031 88.453125 L 241.582031 73.046875 C 241.582031 65.191406 237.664063 60.972656 230.789063 60.972656 "/>
<path style=" stroke:none;fill-rule:nonzero;fill:rgb(13.299561%,12.199402%,12.199402%);fill-opacity:1;" d="M 120.015625 72.34375 C 121.167969 68.027344 124.476563 65.355469 128.636719 65.355469 C 132.75 65.355469 135.808594 67.917969 137.003906 72.34375 Z M 128.484375 60.628906 C 124.617188 60.628906 121.261719 62.085938 118.582031 65.042969 C 116.105469 67.777344 114.816406 71.09375 114.816406 74.90625 C 114.816406 78.539063 116.257813 82.269531 118.792969 84.9375 C 121.40625 87.746094 124.683594 89.164063 128.589844 89.164063 C 134.382813 89.164063 138.945313 85.945313 141.410156 79.902344 L 136.007813 79.902344 C 134.484375 82.726563 131.765625 84.320313 128.589844 84.320313 C 124.230469 84.320313 120.65625 81.316406 119.871094 76.730469 L 142.25 76.730469 L 142.25 75.972656 C 142.25 72.25 141.5625 69.382813 139.960938 66.90625 C 137.347656 62.875 133.148438 60.628906 128.484375 60.628906 "/>
<path style=" stroke:none;fill-rule:nonzero;fill:rgb(13.299561%,12.199402%,12.199402%);fill-opacity:1;" d="M 190.527344 84.378906 C 185.53125 84.378906 181.71875 80.359375 181.71875 74.90625 C 181.71875 69.335938 185.6875 65.398438 190.488281 65.398438 C 195.386719 65.398438 199.238281 69.28125 199.238281 74.871094 C 199.238281 80.40625 195.386719 84.378906 190.527344 84.378906 M 190.28125 60.574219 C 186.671875 60.574219 183.207031 62.1875 180.527344 65.109375 C 178.046875 67.777344 176.773438 71.144531 176.773438 74.972656 C 176.773438 78.601563 178.210938 82.320313 180.722656 84.984375 C 183.351563 87.8125 186.671875 89.207031 190.527344 89.207031 C 194.390625 89.207031 197.8125 87.617188 200.480469 84.628906 C 202.816406 82.03125 204.203125 78.332031 204.203125 74.617188 C 204.203125 70.992188 202.761719 67.464844 200.144531 64.742188 C 197.46875 61.976563 194.152344 60.574219 190.28125 60.574219 "/>
<g clip-path="url(#clip1)" clip-rule="nonzero">
<path style=" stroke:none;fill-rule:nonzero;fill:rgb(13.299561%,12.199402%,12.199402%);fill-opacity:1;" d="M 159.886719 84.441406 C 155.121094 84.441406 150.910156 80.246094 150.910156 74.761719 C 150.910156 69.730469 155.171875 65.441406 159.839844 65.441406 C 164.828125 65.441406 168.988281 69.472656 168.988281 75.113281 C 168.988281 80.40625 164.78125 84.441406 159.886719 84.441406 M 160.023438 60.824219 C 156.664063 60.824219 153.597656 62.132813 151.117188 64.742188 L 151.117188 61.421875 L 146.265625 61.421875 L 146.265625 97.230469 L 151.070313 97.230469 L 151.070313 85.183594 C 153.640625 87.863281 156.703125 89.164063 160.324219 89.164063 C 164.332031 89.164063 167.453125 87.863281 170.132813 84.984375 C 172.605469 82.367188 173.992188 78.847656 173.992188 75.070313 C 173.992188 66.972656 168.097656 60.824219 160.023438 60.824219 "/>
</g>
<path style=" stroke:none;fill-rule:nonzero;fill:rgb(13.299561%,12.199402%,12.199402%);fill-opacity:1;" d="M 106.546875 64.550781 L 106.546875 61.421875 L 102.050781 61.421875 L 102.050781 88.457031 L 106.847656 88.457031 L 106.847656 73.402344 C 106.847656 68.675781 108.332031 66.410156 112.839844 66.058594 L 112.839844 60.972656 C 110.121094 61.035156 108.140625 62.132813 106.546875 64.550781 "/>
<path style=" stroke:none;fill-rule:nonzero;fill:rgb(13.299561%,12.199402%,12.199402%);fill-opacity:1;" d="M 93.792969 65.71875 L 97.554688 65.84375 L 97.554688 61.421875 L 93.792969 61.421875 L 93.792969 52.667969 L 89.039063 52.667969 L 89.039063 61.421875 L 85.269531 61.421875 L 85.269531 65.84375 L 89.039063 65.84375 L 89.03125 80.804688 C 89.421875 84.847656 92.035156 88 95.855469 89.292969 L 97.472656 84.691406 C 95.421875 84.027344 93.78125 82.4375 93.78125 79.75 "/>
<path style=" stroke:none;fill-rule:nonzero;fill:rgb(13.299561%,12.199402%,12.199402%);fill-opacity:1;" d="M 252.484375 65.71875 L 256.25 65.84375 L 256.25 61.421875 L 252.484375 61.421875 L 252.484375 52.667969 L 247.726563 52.667969 L 247.726563 61.421875 L 243.96875 61.421875 L 243.96875 65.84375 L 247.726563 65.84375 L 247.714844 80.804688 C 248.101563 84.847656 250.726563 88 254.535156 89.292969 L 256.171875 84.691406 C 254.117188 84.027344 252.464844 82.4375 252.464844 79.75 "/>
<g clip-path="url(#clip2)" clip-rule="nonzero">
<path style=" stroke:none;fill-rule:nonzero;fill:rgb(82.398987%,12.199402%,14.898682%);fill-opacity:1;" d="M 291.6875 -0.00390625 C 272.605469 0.0234375 257.160156 15.511719 257.1875 34.589844 C 257.210938 53.683594 272.703125 69.132813 291.78125 69.105469 C 310.859375 69.082031 326.304688 53.589844 326.277344 34.496094 C 326.25 15.421875 310.765625 -0.0273438 291.6875 -0.00390625 "/>
</g>
<path style=" stroke:none;fill-rule:nonzero;fill:rgb(96.099854%,70.999146%,9.399414%);fill-opacity:1;" d="M 291.695313 6.671875 C 276.328125 6.691406 263.882813 19.179688 263.902344 34.550781 C 263.921875 49.917969 276.402344 62.351563 291.769531 62.332031 C 307.136719 62.308594 319.582031 49.839844 319.5625 34.476563 C 319.539063 19.101563 307.0625 6.652344 291.695313 6.671875 "/>
<path style=" stroke:none;fill-rule:nonzero;fill:rgb(11.399841%,55.299377%,79.998779%);fill-opacity:1;" d="M 291.703125 13.804688 C 280.265625 13.824219 271.015625 23.101563 271.03125 34.539063 C 271.042969 45.972656 280.324219 55.222656 291.765625 55.210938 C 303.199219 55.191406 312.453125 45.914063 312.4375 34.484375 C 312.417969 23.042969 303.144531 13.789063 291.703125 13.804688 "/>
<path style=" stroke:none;fill-rule:nonzero;fill:rgb(87.5%,3.898621%,48.999023%);fill-opacity:1;" d="M 291.71875 20.613281 C 284.042969 20.625 277.835938 26.855469 277.847656 34.53125 C 277.859375 42.199219 284.078125 48.40625 291.753906 48.398438 C 299.429688 48.386719 305.636719 42.164063 305.625 34.492188 C 305.613281 26.816406 299.390625 20.605469 291.71875 20.613281 "/>
<path style=" stroke:none;fill-rule:nonzero;fill:rgb(100%,100%,100%);fill-opacity:1;" d="M 291.742188 41.441406 C 287.910156 41.449219 284.8125 38.347656 284.808594 34.519531 C 284.800781 30.691406 287.890625 27.585938 291.726563 27.578125 C 295.554688 27.574219 298.660156 30.671875 298.664063 34.503906 C 298.671875 38.324219 295.570313 41.4375 291.742188 41.441406 "/>
</g>
</svg>
